<mxfile host="app.diagrams.net" agent="Mozilla/5.0 (Windows NT 10.0; Win64; x64) AppleWebKit/537.36 (KHTML, like Gecko) Chrome/131.0.0.0 Safari/537.36" version="26.0.8">
  <diagram name="Page-1" id="v3JuTACVFO5mwoLEsfui">
    <mxGraphModel grid="1" page="1" gridSize="10" guides="1" tooltips="1" connect="1" arrows="1" fold="1" pageScale="1" pageWidth="850" pageHeight="1100" math="0" shadow="0">
      <root>
        <mxCell id="0" />
        <mxCell id="1" parent="0" />
        <mxCell id="YOzcR36qvwy7oL53184l-1" value="" style="ellipse;whiteSpace=wrap;html=1;aspect=fixed;strokeColor=light-dark(#ea1a1a, #ededed);gradientColor=default;fillColor=light-dark(#121111, #ededed);" vertex="1" parent="1">
          <mxGeometry x="107.5" y="40" width="35" height="35" as="geometry" />
        </mxCell>
        <mxCell id="YOzcR36qvwy7oL53184l-2" value="" style="endArrow=none;html=1;rounded=0;entryX=0.5;entryY=1;entryDx=0;entryDy=0;" edge="1" parent="1" target="YOzcR36qvwy7oL53184l-1">
          <mxGeometry width="50" height="50" relative="1" as="geometry">
            <mxPoint x="125" y="97" as="sourcePoint" />
            <mxPoint x="119.5" y="70" as="targetPoint" />
          </mxGeometry>
        </mxCell>
        <mxCell id="YOzcR36qvwy7oL53184l-3" value="Login" style="rounded=0;whiteSpace=wrap;html=1;" vertex="1" parent="1">
          <mxGeometry x="70" y="100" width="120" height="30" as="geometry" />
        </mxCell>
        <mxCell id="YOzcR36qvwy7oL53184l-5" value="" style="endArrow=classic;html=1;rounded=0;entryX=0.5;entryY=0;entryDx=0;entryDy=0;" edge="1" parent="1" target="YOzcR36qvwy7oL53184l-6">
          <mxGeometry width="50" height="50" relative="1" as="geometry">
            <mxPoint x="125" y="132" as="sourcePoint" />
            <mxPoint x="199.99823529411768" y="230.00176470588232" as="targetPoint" />
          </mxGeometry>
        </mxCell>
        <mxCell id="YOzcR36qvwy7oL53184l-6" value="Login&amp;nbsp;&lt;div&gt;Successful ?&lt;/div&gt;" style="rhombus;whiteSpace=wrap;html=1;" vertex="1" parent="1">
          <mxGeometry x="80" y="180" width="90" height="90" as="geometry" />
        </mxCell>
        <mxCell id="YOzcR36qvwy7oL53184l-8" value="" style="endArrow=classic;html=1;rounded=0;entryX=1;entryY=0.75;entryDx=0;entryDy=0;" edge="1" parent="1" target="YOzcR36qvwy7oL53184l-3">
          <mxGeometry width="50" height="50" relative="1" as="geometry">
            <mxPoint x="170" y="224.5" as="sourcePoint" />
            <mxPoint x="200" y="120" as="targetPoint" />
            <Array as="points">
              <mxPoint x="280" y="225" />
              <mxPoint x="280" y="120" />
            </Array>
          </mxGeometry>
        </mxCell>
        <mxCell id="YOzcR36qvwy7oL53184l-9" value="Yes" style="text;html=1;align=center;verticalAlign=middle;resizable=0;points=[];autosize=1;strokeColor=none;fillColor=none;" vertex="1" parent="1">
          <mxGeometry x="120" y="138" width="40" height="30" as="geometry" />
        </mxCell>
        <mxCell id="YOzcR36qvwy7oL53184l-10" value="No" style="text;html=1;align=center;verticalAlign=middle;resizable=0;points=[];autosize=1;strokeColor=none;fillColor=none;" vertex="1" parent="1">
          <mxGeometry x="190" y="198" width="40" height="30" as="geometry" />
        </mxCell>
        <mxCell id="YOzcR36qvwy7oL53184l-11" value="" style="endArrow=classic;html=1;rounded=0;exitX=0.422;exitY=0.985;exitDx=0;exitDy=0;exitPerimeter=0;" edge="1" parent="1">
          <mxGeometry width="50" height="50" relative="1" as="geometry">
            <mxPoint x="123.99000000000002" y="270" as="sourcePoint" />
            <mxPoint x="124" y="321" as="targetPoint" />
          </mxGeometry>
        </mxCell>
        <mxCell id="YOzcR36qvwy7oL53184l-12" value="Admin" style="rhombus;whiteSpace=wrap;html=1;" vertex="1" parent="1">
          <mxGeometry x="80" y="320" width="90" height="90" as="geometry" />
        </mxCell>
        <mxCell id="YOzcR36qvwy7oL53184l-16" value="" style="endArrow=classic;html=1;rounded=0;entryX=0.5;entryY=0;entryDx=0;entryDy=0;" edge="1" parent="1" target="YOzcR36qvwy7oL53184l-17">
          <mxGeometry width="50" height="50" relative="1" as="geometry">
            <mxPoint x="130" y="290" as="sourcePoint" />
            <mxPoint x="545" y="320" as="targetPoint" />
            <Array as="points">
              <mxPoint x="780" y="290" />
            </Array>
          </mxGeometry>
        </mxCell>
        <mxCell id="YOzcR36qvwy7oL53184l-17" value="Registered&lt;div&gt;User&lt;/div&gt;" style="rhombus;whiteSpace=wrap;html=1;" vertex="1" parent="1">
          <mxGeometry x="735" y="318" width="90" height="90" as="geometry" />
        </mxCell>
        <mxCell id="YOzcR36qvwy7oL53184l-18" value="" style="rounded=0;whiteSpace=wrap;html=1;" vertex="1" parent="1">
          <mxGeometry x="60" y="440" width="120" height="10" as="geometry" />
        </mxCell>
        <mxCell id="YOzcR36qvwy7oL53184l-19" value="" style="rounded=0;whiteSpace=wrap;html=1;" vertex="1" parent="1">
          <mxGeometry x="720" y="450" width="120" height="10" as="geometry" />
        </mxCell>
        <mxCell id="YOzcR36qvwy7oL53184l-20" value="No" style="text;html=1;align=center;verticalAlign=middle;resizable=0;points=[];autosize=1;strokeColor=none;fillColor=none;" vertex="1" parent="1">
          <mxGeometry x="200" y="260" width="40" height="30" as="geometry" />
        </mxCell>
        <mxCell id="YOzcR36qvwy7oL53184l-21" value="Yes" style="text;html=1;align=center;verticalAlign=middle;resizable=0;points=[];autosize=1;strokeColor=none;fillColor=none;" vertex="1" parent="1">
          <mxGeometry x="80" y="288" width="40" height="30" as="geometry" />
        </mxCell>
        <mxCell id="YOzcR36qvwy7oL53184l-22" value="" style="endArrow=classic;html=1;rounded=0;exitX=0.5;exitY=1;exitDx=0;exitDy=0;entryX=0.542;entryY=0;entryDx=0;entryDy=0;exitPerimeter=0;entryPerimeter=0;" edge="1" parent="1" source="YOzcR36qvwy7oL53184l-12" target="YOzcR36qvwy7oL53184l-18">
          <mxGeometry width="50" height="50" relative="1" as="geometry">
            <mxPoint x="170" y="420" as="sourcePoint" />
            <mxPoint x="220" y="370" as="targetPoint" />
          </mxGeometry>
        </mxCell>
        <mxCell id="YOzcR36qvwy7oL53184l-24" value="" style="endArrow=classic;html=1;rounded=0;exitX=0.5;exitY=1;exitDx=0;exitDy=0;entryX=0.5;entryY=0;entryDx=0;entryDy=0;" edge="1" parent="1" source="YOzcR36qvwy7oL53184l-17" target="YOzcR36qvwy7oL53184l-19">
          <mxGeometry width="50" height="50" relative="1" as="geometry">
            <mxPoint x="520" y="520" as="sourcePoint" />
            <mxPoint x="570" y="470" as="targetPoint" />
          </mxGeometry>
        </mxCell>
        <mxCell id="YOzcR36qvwy7oL53184l-27" value="" style="endArrow=classic;startArrow=classic;html=1;rounded=0;" edge="1" parent="1">
          <mxGeometry width="50" height="50" relative="1" as="geometry">
            <mxPoint x="-40" y="520" as="sourcePoint" />
            <mxPoint x="240" y="520" as="targetPoint" />
            <Array as="points">
              <mxPoint x="-40" y="480" />
              <mxPoint x="240" y="480" />
            </Array>
          </mxGeometry>
        </mxCell>
        <mxCell id="YOzcR36qvwy7oL53184l-28" value="" style="endArrow=classic;html=1;rounded=0;" edge="1" parent="1">
          <mxGeometry width="50" height="50" relative="1" as="geometry">
            <mxPoint x="90" y="480" as="sourcePoint" />
            <mxPoint x="90" y="520" as="targetPoint" />
            <Array as="points">
              <mxPoint x="90" y="490" />
            </Array>
          </mxGeometry>
        </mxCell>
        <mxCell id="YOzcR36qvwy7oL53184l-29" value="" style="endArrow=none;html=1;rounded=0;" edge="1" parent="1">
          <mxGeometry width="50" height="50" relative="1" as="geometry">
            <mxPoint x="120" y="480" as="sourcePoint" />
            <mxPoint x="120" y="452" as="targetPoint" />
            <Array as="points">
              <mxPoint x="120" y="470" />
            </Array>
          </mxGeometry>
        </mxCell>
        <mxCell id="YOzcR36qvwy7oL53184l-31" value="Product&lt;br&gt;&lt;div&gt;Management&lt;/div&gt;" style="rounded=0;whiteSpace=wrap;html=1;" vertex="1" parent="1">
          <mxGeometry x="30" y="520" width="120" height="40" as="geometry" />
        </mxCell>
        <mxCell id="YOzcR36qvwy7oL53184l-32" value="Website&lt;div&gt;Management&lt;/div&gt;" style="rounded=0;whiteSpace=wrap;html=1;" vertex="1" parent="1">
          <mxGeometry x="-100" y="520" width="120" height="40" as="geometry" />
        </mxCell>
        <mxCell id="YOzcR36qvwy7oL53184l-33" value="Service&lt;br&gt;&lt;div&gt;Management&lt;/div&gt;" style="rounded=0;whiteSpace=wrap;html=1;" vertex="1" parent="1">
          <mxGeometry x="170" y="520" width="120" height="40" as="geometry" />
        </mxCell>
        <mxCell id="YOzcR36qvwy7oL53184l-34" value="" style="endArrow=classic;startArrow=classic;html=1;rounded=0;exitX=0.584;exitY=-0.075;exitDx=0;exitDy=0;exitPerimeter=0;" edge="1" parent="1" source="YOzcR36qvwy7oL53184l-39">
          <mxGeometry width="50" height="50" relative="1" as="geometry">
            <mxPoint x="990" y="520" as="sourcePoint" />
            <mxPoint x="450" y="520" as="targetPoint" />
            <Array as="points">
              <mxPoint x="1010" y="480" />
              <mxPoint x="900" y="480" />
              <mxPoint x="450" y="480" />
            </Array>
          </mxGeometry>
        </mxCell>
        <mxCell id="YOzcR36qvwy7oL53184l-35" value="Browse Products" style="rounded=0;whiteSpace=wrap;html=1;" vertex="1" parent="1">
          <mxGeometry x="390" y="520" width="120" height="40" as="geometry" />
        </mxCell>
        <mxCell id="YOzcR36qvwy7oL53184l-36" value="Order Products" style="rounded=0;whiteSpace=wrap;html=1;" vertex="1" parent="1">
          <mxGeometry x="520" y="520" width="120" height="40" as="geometry" />
        </mxCell>
        <mxCell id="YOzcR36qvwy7oL53184l-37" value="Payment" style="rounded=0;whiteSpace=wrap;html=1;" vertex="1" parent="1">
          <mxGeometry x="660" y="520" width="120" height="40" as="geometry" />
        </mxCell>
        <mxCell id="YOzcR36qvwy7oL53184l-38" value="Cart" style="rounded=0;whiteSpace=wrap;html=1;" vertex="1" parent="1">
          <mxGeometry x="800" y="520" width="120" height="40" as="geometry" />
        </mxCell>
        <mxCell id="YOzcR36qvwy7oL53184l-39" value="Book Appointment" style="rounded=0;whiteSpace=wrap;html=1;" vertex="1" parent="1">
          <mxGeometry x="940" y="520" width="120" height="40" as="geometry" />
        </mxCell>
        <mxCell id="YOzcR36qvwy7oL53184l-41" value="" style="endArrow=classic;html=1;rounded=0;" edge="1" parent="1">
          <mxGeometry width="50" height="50" relative="1" as="geometry">
            <mxPoint x="579.33" y="480" as="sourcePoint" />
            <mxPoint x="579.33" y="520" as="targetPoint" />
          </mxGeometry>
        </mxCell>
        <mxCell id="YOzcR36qvwy7oL53184l-42" value="" style="endArrow=classic;html=1;rounded=0;" edge="1" parent="1">
          <mxGeometry width="50" height="50" relative="1" as="geometry">
            <mxPoint x="719.33" y="480" as="sourcePoint" />
            <mxPoint x="719.33" y="520" as="targetPoint" />
          </mxGeometry>
        </mxCell>
        <mxCell id="YOzcR36qvwy7oL53184l-43" value="" style="endArrow=none;html=1;rounded=0;" edge="1" parent="1">
          <mxGeometry width="50" height="50" relative="1" as="geometry">
            <mxPoint x="778.67" y="480" as="sourcePoint" />
            <mxPoint x="778.67" y="480" as="targetPoint" />
            <Array as="points">
              <mxPoint x="778.67" y="460" />
            </Array>
          </mxGeometry>
        </mxCell>
        <mxCell id="YOzcR36qvwy7oL53184l-44" value="" style="rounded=0;whiteSpace=wrap;html=1;" vertex="1" parent="1">
          <mxGeometry x="-120" y="680" width="1190" height="20" as="geometry" />
        </mxCell>
        <mxCell id="YOzcR36qvwy7oL53184l-45" value="" style="html=1;labelBackgroundColor=#ffffff;startArrow=none;startFill=0;startSize=6;endArrow=classic;endFill=1;endSize=6;jettySize=auto;orthogonalLoop=1;strokeWidth=1;dashed=1;fontSize=14;rounded=0;exitX=0.406;exitY=1.033;exitDx=0;exitDy=0;exitPerimeter=0;entryX=0.059;entryY=-0.194;entryDx=0;entryDy=0;entryPerimeter=0;" edge="1" parent="1" source="YOzcR36qvwy7oL53184l-32" target="YOzcR36qvwy7oL53184l-44">
          <mxGeometry width="60" height="60" relative="1" as="geometry">
            <mxPoint x="-58" y="560" as="sourcePoint" />
            <mxPoint x="-51" y="670" as="targetPoint" />
          </mxGeometry>
        </mxCell>
        <mxCell id="YOzcR36qvwy7oL53184l-46" value="" style="html=1;labelBackgroundColor=#ffffff;startArrow=none;startFill=0;startSize=6;endArrow=classic;endFill=1;endSize=6;jettySize=auto;orthogonalLoop=1;strokeWidth=1;dashed=1;fontSize=14;rounded=0;exitX=0.5;exitY=1;exitDx=0;exitDy=0;entryX=0.176;entryY=0.033;entryDx=0;entryDy=0;entryPerimeter=0;" edge="1" parent="1" source="YOzcR36qvwy7oL53184l-31" target="YOzcR36qvwy7oL53184l-44">
          <mxGeometry width="60" height="60" relative="1" as="geometry">
            <mxPoint x="80" y="560" as="sourcePoint" />
            <mxPoint x="103.93000000000006" y="680.6600000000001" as="targetPoint" />
          </mxGeometry>
        </mxCell>
        <mxCell id="YOzcR36qvwy7oL53184l-47" value="" style="html=1;labelBackgroundColor=#ffffff;startArrow=none;startFill=0;startSize=6;endArrow=classic;endFill=1;endSize=6;jettySize=auto;orthogonalLoop=1;strokeWidth=1;dashed=1;fontSize=14;rounded=0;exitX=0.406;exitY=1.033;exitDx=0;exitDy=0;exitPerimeter=0;entryX=0.197;entryY=0.033;entryDx=0;entryDy=0;entryPerimeter=0;" edge="1" parent="1">
          <mxGeometry width="60" height="60" relative="1" as="geometry">
            <mxPoint x="240" y="560" as="sourcePoint" />
            <mxPoint x="240.5" y="681" as="targetPoint" />
          </mxGeometry>
        </mxCell>
        <mxCell id="YOzcR36qvwy7oL53184l-48" value="" style="html=1;labelBackgroundColor=#ffffff;startArrow=none;startFill=0;startSize=6;endArrow=classic;endFill=1;endSize=6;jettySize=auto;orthogonalLoop=1;strokeWidth=1;dashed=1;fontSize=14;rounded=0;exitX=0.406;exitY=1.033;exitDx=0;exitDy=0;exitPerimeter=0;entryX=0.197;entryY=0.033;entryDx=0;entryDy=0;entryPerimeter=0;" edge="1" parent="1">
          <mxGeometry width="60" height="60" relative="1" as="geometry">
            <mxPoint x="999.33" y="560" as="sourcePoint" />
            <mxPoint x="999.83" y="681" as="targetPoint" />
          </mxGeometry>
        </mxCell>
        <mxCell id="YOzcR36qvwy7oL53184l-49" value="" style="html=1;labelBackgroundColor=#ffffff;startArrow=none;startFill=0;startSize=6;endArrow=classic;endFill=1;endSize=6;jettySize=auto;orthogonalLoop=1;strokeWidth=1;dashed=1;fontSize=14;rounded=0;exitX=0.406;exitY=1.033;exitDx=0;exitDy=0;exitPerimeter=0;entryX=0.197;entryY=0.033;entryDx=0;entryDy=0;entryPerimeter=0;" edge="1" parent="1">
          <mxGeometry width="60" height="60" relative="1" as="geometry">
            <mxPoint x="440" y="559" as="sourcePoint" />
            <mxPoint x="440.5" y="680" as="targetPoint" />
          </mxGeometry>
        </mxCell>
        <mxCell id="YOzcR36qvwy7oL53184l-50" value="" style="html=1;labelBackgroundColor=#ffffff;startArrow=none;startFill=0;startSize=6;endArrow=classic;endFill=1;endSize=6;jettySize=auto;orthogonalLoop=1;strokeWidth=1;dashed=1;fontSize=14;rounded=0;exitX=0.406;exitY=1.033;exitDx=0;exitDy=0;exitPerimeter=0;entryX=0.197;entryY=0.033;entryDx=0;entryDy=0;entryPerimeter=0;" edge="1" parent="1">
          <mxGeometry width="60" height="60" relative="1" as="geometry">
            <mxPoint x="579.33" y="559" as="sourcePoint" />
            <mxPoint x="579.83" y="680" as="targetPoint" />
          </mxGeometry>
        </mxCell>
        <mxCell id="YOzcR36qvwy7oL53184l-51" value="" style="html=1;labelBackgroundColor=#ffffff;startArrow=none;startFill=0;startSize=6;endArrow=classic;endFill=1;endSize=6;jettySize=auto;orthogonalLoop=1;strokeWidth=1;dashed=1;fontSize=14;rounded=0;exitX=0.406;exitY=1.033;exitDx=0;exitDy=0;exitPerimeter=0;entryX=0.197;entryY=0.033;entryDx=0;entryDy=0;entryPerimeter=0;" edge="1" parent="1">
          <mxGeometry width="60" height="60" relative="1" as="geometry">
            <mxPoint x="718.67" y="560" as="sourcePoint" />
            <mxPoint x="719.17" y="681" as="targetPoint" />
          </mxGeometry>
        </mxCell>
        <mxCell id="YOzcR36qvwy7oL53184l-52" value="" style="html=1;labelBackgroundColor=#ffffff;startArrow=none;startFill=0;startSize=6;endArrow=classic;endFill=1;endSize=6;jettySize=auto;orthogonalLoop=1;strokeWidth=1;dashed=1;fontSize=14;rounded=0;exitX=0.406;exitY=1.033;exitDx=0;exitDy=0;exitPerimeter=0;entryX=0.197;entryY=0.033;entryDx=0;entryDy=0;entryPerimeter=0;" edge="1" parent="1">
          <mxGeometry width="60" height="60" relative="1" as="geometry">
            <mxPoint x="849" y="560" as="sourcePoint" />
            <mxPoint x="849.5" y="681" as="targetPoint" />
          </mxGeometry>
        </mxCell>
        <mxCell id="YOzcR36qvwy7oL53184l-56" value="" style="endArrow=classic;html=1;rounded=0;" edge="1" parent="1">
          <mxGeometry width="50" height="50" relative="1" as="geometry">
            <mxPoint x="859.6600000000001" y="480" as="sourcePoint" />
            <mxPoint x="859.6600000000001" y="520" as="targetPoint" />
            <Array as="points">
              <mxPoint x="859.33" y="500" />
            </Array>
          </mxGeometry>
        </mxCell>
        <mxCell id="YOzcR36qvwy7oL53184l-57" value="Logout" style="rounded=0;whiteSpace=wrap;html=1;" vertex="1" parent="1">
          <mxGeometry x="250" y="790" width="170" height="40" as="geometry" />
        </mxCell>
        <mxCell id="YOzcR36qvwy7oL53184l-58" value="" style="endArrow=classic;html=1;rounded=0;" edge="1" parent="1">
          <mxGeometry width="50" height="50" relative="1" as="geometry">
            <mxPoint x="340" y="700" as="sourcePoint" />
            <mxPoint x="340" y="790" as="targetPoint" />
          </mxGeometry>
        </mxCell>
        <mxCell id="YOzcR36qvwy7oL53184l-59" value="" style="ellipse;whiteSpace=wrap;html=1;aspect=fixed;strokeColor=light-dark(#ea1a1a, #ededed);gradientColor=default;fillColor=light-dark(#121111, #ededed);" vertex="1" parent="1">
          <mxGeometry x="320" y="900" width="30" height="30" as="geometry" />
        </mxCell>
        <mxCell id="YOzcR36qvwy7oL53184l-62" value="" style="endArrow=classic;html=1;rounded=0;entryX=0.5;entryY=0;entryDx=0;entryDy=0;exitX=0.5;exitY=1;exitDx=0;exitDy=0;" edge="1" parent="1" source="YOzcR36qvwy7oL53184l-57" target="YOzcR36qvwy7oL53184l-59">
          <mxGeometry width="50" height="50" relative="1" as="geometry">
            <mxPoint x="340" y="830" as="sourcePoint" />
            <mxPoint x="400" y="810" as="targetPoint" />
          </mxGeometry>
        </mxCell>
        <mxCell id="YOzcR36qvwy7oL53184l-63" style="edgeStyle=orthogonalEdgeStyle;rounded=0;orthogonalLoop=1;jettySize=auto;html=1;exitX=1;exitY=1;exitDx=0;exitDy=0;entryX=0;entryY=1;entryDx=0;entryDy=0;" edge="1" parent="1" source="YOzcR36qvwy7oL53184l-59" target="YOzcR36qvwy7oL53184l-59">
          <mxGeometry relative="1" as="geometry" />
        </mxCell>
      </root>
    </mxGraphModel>
  </diagram>
</mxfile>
